REM DIRINDEX 1\2,1\3,1\4,1\5
REM DIRNAME cjc044,folder01,folder02,folder03,folder04
TITLE ""
FILE "1800_148.mp3" MP3
  TRACK 01 AUDIO
    TITLE "2:cjc044_4569"
    INDEX 01 00:00:00
  TRACK 02 AUDIO
    TITLE "0:"
    INDEX 01 00:01:26
  TRACK 03 AUDIO
    TITLE "3:cjc044_4570"
    INDEX 01 00:02:08
  TRACK 04 AUDIO
    TITLE "0:"
    INDEX 01 00:03:10
  TRACK 05 AUDIO
    TITLE "4:cjc044_4571"
    INDEX 01 00:03:72
  TRACK 06 AUDIO
    TITLE "0:"
    INDEX 01 00:05:40
  TRACK 07 AUDIO
    TITLE "2:cjc044_4572"
    INDEX 01 00:07:19
  TRACK 08 AUDIO
    TITLE "0:"
    INDEX 01 00:08:52
  TRACK 09 AUDIO
    TITLE "3:cjc044_4573"
    INDEX 01 00:09:36
  TRACK 10 AUDIO
    TITLE "0:"
    INDEX 01 00:11:37
  TRACK 11 AUDIO
    TITLE "4:cjc044_4574"
    INDEX 01 00:12:32
  TRACK 12 AUDIO
    TITLE "0:"
    INDEX 01 00:13:61
  TRACK 13 AUDIO
    TITLE "2:cjc044_4575"
    INDEX 01 00:15:44
  TRACK 14 AUDIO
    TITLE "0:"
    INDEX 01 00:16:73
  TRACK 15 AUDIO
    TITLE "3:cjc044_4576"
    INDEX 01 00:17:53
  TRACK 16 AUDIO
    TITLE "0:"
    INDEX 01 00:18:70
  TRACK 17 AUDIO
    TITLE "4:cjc044_4577"
    INDEX 01 00:19:52
  TRACK 18 AUDIO
    TITLE "0:"
    INDEX 01 00:21:04
  TRACK 19 AUDIO
    TITLE "2:cjc044_4578"
    INDEX 01 00:22:56
  TRACK 20 AUDIO
    TITLE "0:"
    INDEX 01 00:24:04
  TRACK 21 AUDIO
    TITLE "3:cjc044_4579"
    INDEX 01 00:24:57
  TRACK 22 AUDIO
    TITLE "0:"
    INDEX 01 00:26:05
  TRACK 23 AUDIO
    TITLE "4:cjc044_4580"
    INDEX 01 00:26:58
  TRACK 24 AUDIO
    TITLE "0:"
    INDEX 01 00:28:08
  TRACK 25 AUDIO
    TITLE "2:cjc044_4581"
    INDEX 01 00:29:62
  TRACK 26 AUDIO
    TITLE "0:"
    INDEX 01 00:31:16
  TRACK 27 AUDIO
    TITLE "3:cjc044_4582"
    INDEX 01 00:31:71
  TRACK 28 AUDIO
    TITLE "0:"
    INDEX 01 00:33:01
  TRACK 29 AUDIO
    TITLE "4:cjc044_4583"
    INDEX 01 00:33:60
  TRACK 30 AUDIO
    TITLE "0:"
    INDEX 01 00:35:17
  TRACK 31 AUDIO
    TITLE "2:cjc044_4584"
    INDEX 01 00:36:68
  TRACK 32 AUDIO
    TITLE "0:"
    INDEX 01 00:38:08
  TRACK 33 AUDIO
    TITLE "3:cjc044_4585"
    INDEX 01 00:39:02
  TRACK 34 AUDIO
    TITLE "0:"
    INDEX 01 00:40:19
  TRACK 35 AUDIO
    TITLE "4:cjc044_4586"
    INDEX 01 00:41:10
  TRACK 36 AUDIO
    TITLE "0:"
    INDEX 01 00:42:31
  TRACK 37 AUDIO
    TITLE "2:cjc044_4587"
    INDEX 01 00:44:11
  TRACK 38 AUDIO
    TITLE "0:"
    INDEX 01 00:45:43
  TRACK 39 AUDIO
    TITLE "3:cjc044_4588"
    INDEX 01 00:46:35
  TRACK 40 AUDIO
    TITLE "0:"
    INDEX 01 00:47:40
  TRACK 41 AUDIO
    TITLE "4:cjc044_4589"
    INDEX 01 00:48:34
  TRACK 42 AUDIO
    TITLE "0:"
    INDEX 01 00:49:72
  TRACK 43 AUDIO
    TITLE "2:cjc044_4590"
    INDEX 01 00:51:50
  TRACK 44 AUDIO
    TITLE "0:"
    INDEX 01 00:52:61
  TRACK 45 AUDIO
    TITLE "3:cjc044_4591"
    INDEX 01 00:53:43
  TRACK 46 AUDIO
    TITLE "0:"
    INDEX 01 00:55:06
  TRACK 47 AUDIO
    TITLE "4:cjc044_4592"
    INDEX 01 00:55:59
  TRACK 48 AUDIO
    TITLE "0:"
    INDEX 01 00:56:72
  TRACK 49 AUDIO
    TITLE "2:cjc044_4593"
    INDEX 01 00:58:54
  TRACK 50 AUDIO
    TITLE "0:"
    INDEX 01 00:59:67
  TRACK 51 AUDIO
    TITLE "3:cjc044_4594"
    INDEX 01 01:00:57
  TRACK 52 AUDIO
    TITLE "0:"
    INDEX 01 01:02:32
  TRACK 53 AUDIO
    TITLE "4:cjc044_4595"
    INDEX 01 01:03:22
  TRACK 54 AUDIO
    TITLE "0:"
    INDEX 01 01:04:35
  TRACK 55 AUDIO
    TITLE "2:cjc044_4596"
    INDEX 01 01:06:16
  TRACK 56 AUDIO
    TITLE "0:"
    INDEX 01 01:07:61
  TRACK 57 AUDIO
    TITLE "3:cjc044_4597"
    INDEX 01 01:08:36
  TRACK 58 AUDIO
    TITLE "0:"
    INDEX 01 01:09:59
  TRACK 59 AUDIO
    TITLE "4:cjc044_4598"
    INDEX 01 01:10:39
  TRACK 60 AUDIO
    TITLE "0:"
    INDEX 01 01:12:07
  TRACK 61 AUDIO
    TITLE "2:cjc044_4599"
    INDEX 01 01:13:65
  TRACK 62 AUDIO
    TITLE "0:"
    INDEX 01 01:15:07
  TRACK 63 AUDIO
    TITLE "3:cjc044_4600"
    INDEX 01 01:15:70
  TRACK 64 AUDIO
    TITLE "0:"
    INDEX 01 01:17:16
  TRACK 65 AUDIO
    TITLE "4:cjc044_4601"
    INDEX 01 01:18:11
  TRACK 66 AUDIO
    TITLE "0:"
    INDEX 01 01:19:28
  TRACK 67 AUDIO
    TITLE "2:cjc044_4602"
    INDEX 01 01:21:16
  TRACK 68 AUDIO
    TITLE "0:"
    INDEX 01 01:22:56
  TRACK 69 AUDIO
    TITLE "3:cjc044_4603"
    INDEX 01 01:23:48
  TRACK 70 AUDIO
    TITLE "0:"
    INDEX 01 01:24:61
  TRACK 71 AUDIO
    TITLE "4:cjc044_4604"
    INDEX 01 01:25:57
  TRACK 72 AUDIO
    TITLE "0:"
    INDEX 01 01:27:22
  TRACK 73 AUDIO
    TITLE "2:cjc044_4605"
    INDEX 01 01:29:09
  TRACK 74 AUDIO
    TITLE "0:"
    INDEX 01 01:30:38
  TRACK 75 AUDIO
    TITLE "3:cjc044_4606"
    INDEX 01 01:31:32
  TRACK 76 AUDIO
    TITLE "0:"
    INDEX 01 01:32:47
  TRACK 77 AUDIO
    TITLE "4:cjc044_4607"
    INDEX 01 01:33:38
  TRACK 78 AUDIO
    TITLE "0:"
    INDEX 01 01:34:61
  TRACK 79 AUDIO
    TITLE "2:cjc044_4608"
    INDEX 01 01:36:48
  TRACK 80 AUDIO
    TITLE "0:"
    INDEX 01 01:37:62
  TRACK 81 AUDIO
    TITLE "3:cjc044_4609"
    INDEX 01 01:38:45
  TRACK 82 AUDIO
    TITLE "0:"
    INDEX 01 01:39:43
  TRACK 83 AUDIO
    TITLE "4:cjc044_4610"
    INDEX 01 01:40:29
  TRACK 84 AUDIO
    TITLE "0:"
    INDEX 01 01:41:40
  TRACK 85 AUDIO
    TITLE "2:cjc044_4611"
    INDEX 01 01:43:25
  TRACK 86 AUDIO
    TITLE "0:"
    INDEX 01 01:44:34
  TRACK 87 AUDIO
    TITLE "3:cjc044_4612"
    INDEX 01 01:45:28
  TRACK 88 AUDIO
    TITLE "0:"
    INDEX 01 01:46:37
  TRACK 89 AUDIO
    TITLE "4:cjc044_4613"
    INDEX 01 01:47:29
  TRACK 90 AUDIO
    TITLE "0:"
    INDEX 01 01:48:38
  TRACK 91 AUDIO
    TITLE "2:cjc044_4614"
    INDEX 01 01:50:27
  TRACK 92 AUDIO
    TITLE "0:"
    INDEX 01 01:51:34
  TRACK 93 AUDIO
    TITLE "3:cjc044_4615"
    INDEX 01 01:52:14
  TRACK 94 AUDIO
    TITLE "0:"
    INDEX 01 01:53:23
  TRACK 95 AUDIO
    TITLE "4:cjc044_4616"
    INDEX 01 01:54:07
  TRACK 96 AUDIO
    TITLE "0:"
    INDEX 01 01:55:16
